<svg width="14" height="15" viewBox="0 0 14 15" fill="none" xmlns="http://www.w3.org/2000/svg">
<path d="M9.75 0C9.9337 2.42329e-05 10.111 0.0674671 10.2483 0.189536C10.3856 0.311606 10.4733 0.479812 10.4948 0.66225L10.5 0.75V1.5H11.25C11.8239 1.49997 12.3761 1.71924 12.7937 2.11296C13.2113 2.50668 13.4626 3.04508 13.4963 3.618L13.5 3.75V12.75C13.5 13.3239 13.2808 13.8761 12.887 14.2937C12.4933 14.7113 11.9549 14.9626 11.382 14.9962L11.25 15H2.25C1.67609 15 1.12386 14.7808 0.706304 14.387C0.288745 13.9933 0.0374194 13.4549 0.00375009 12.882L3.49534e-09 12.75V3.75C-3.19663e-05 3.17609 0.219244 2.62386 0.612963 2.2063C1.00668 1.78874 1.54508 1.53742 2.118 1.50375L2.25 1.5H3V0.75C3.00021 0.55884 3.07341 0.374976 3.20464 0.235974C3.33586 0.0969717 3.51521 0.0133238 3.70605 0.00212091C3.89688 -0.00908193 4.08478 0.0530059 4.23137 0.175699C4.37796 0.298391 4.47217 0.472428 4.49475 0.66225L4.5 0.75V1.5H9V0.75C9 0.551088 9.07902 0.360322 9.21967 0.21967C9.36032 0.0790176 9.55109 0 9.75 0ZM12 5.25H1.5V12.4687C1.5 12.9975 1.7895 13.4332 2.16225 13.4932L2.25 13.5H11.25C11.6348 13.5 11.952 13.1025 11.9948 12.5887L12 12.4687V5.25Z" fill="black" fill-opacity="0.5"/>
</svg>
