<svg width="14" height="16" viewBox="0 0 14 16" fill="none" xmlns="http://www.w3.org/2000/svg">
<path d="M11.2428 11.2425L8.0605 14.4248C7.77924 14.7058 7.39794 14.8636 7.00038 14.8636C6.60282 14.8636 6.22151 14.7058 5.94025 14.4248L2.75725 11.2425C1.91817 10.4034 1.34675 9.3343 1.11527 8.17043C0.883782 7.00655 1.00262 5.80017 1.45676 4.70383C1.91089 3.60749 2.67993 2.67044 3.66661 2.01116C4.6533 1.35189 5.81333 1 7 1C8.18668 1 9.3467 1.35189 10.3334 2.01116C11.3201 2.67044 12.0891 3.60749 12.5433 4.70383C12.9974 5.80017 13.1162 7.00655 12.8847 8.17043C12.6533 9.3343 12.0818 10.4034 11.2428 11.2425Z" stroke="black" stroke-opacity="0.5" stroke-width="2" stroke-linecap="round" stroke-linejoin="round"/>
</svg>
