<svg width="20" height="20" viewBox="0 0 20 20" fill="none" xmlns="http://www.w3.org/2000/svg">
<g clip-path="url(#clip0_73_174)">
<path d="M2.3916 8.33333C2.3916 9.09938 2.53595 9.85792 2.81639 10.5657C3.09684 11.2734 3.5079 11.9164 4.0261 12.4581C4.54429 12.9998 5.15949 13.4295 5.83655 13.7226C6.5136 14.0158 7.23927 14.1667 7.97212 14.1667C8.70496 14.1667 9.43063 14.0158 10.1077 13.7226C10.7847 13.4295 11.3999 12.9998 11.9181 12.4581C12.4363 11.9164 12.8474 11.2734 13.1278 10.5657C13.4083 9.85792 13.5526 9.09938 13.5526 8.33333C13.5526 7.56729 13.4083 6.80875 13.1278 6.10101C12.8474 5.39328 12.4363 4.75022 11.9181 4.20854C11.3999 3.66687 10.7847 3.23719 10.1077 2.94404C9.43063 2.65088 8.70496 2.5 7.97212 2.5C7.23927 2.5 6.5136 2.65088 5.83655 2.94404C5.15949 3.23719 4.54429 3.66687 4.0261 4.20854C3.5079 4.75022 3.09684 5.39328 2.81639 6.10101C2.53595 6.80875 2.3916 7.56729 2.3916 8.33333Z" stroke="black" stroke-opacity="0.7" stroke-width="2" stroke-linecap="round" stroke-linejoin="round"/>
<path d="M16.7416 17.5L11.9583 12.5" stroke="black" stroke-opacity="0.7" stroke-width="2" stroke-linecap="round" stroke-linejoin="round"/>
</g>
<defs>
<clipPath id="clip0_73_174">
<rect width="19.1332" height="20" fill="white"/>
</clipPath>
</defs>
</svg>
